<?xml version="1.0" encoding="UTF-8"?>
<!DOCTYPE svg PUBLIC "-//W3C//DTD SVG 1.1//EN" "http://www.w3.org/Graphics/SVG/1.1/DTD/svg11.dtd">
<svg xmlns="http://www.w3.org/2000/svg" version="1.1" width="1600px" height="1390px" style="shape-rendering:geometricPrecision; text-rendering:geometricPrecision; image-rendering:optimizeQuality; fill-rule:evenodd; clip-rule:evenodd" xmlns:xlink="http://www.w3.org/1999/xlink">
<g><path style="opacity:0.993" fill="#1c1a41" d="M 394.5,-0.5 C 408.833,-0.5 423.167,-0.5 437.5,-0.5C 480.171,7.50343 519.504,23.6701 555.5,48C 579.178,63.8469 601.845,81.0135 623.5,99.5C 612.014,111.141 605.347,125.141 603.5,141.5C 567.799,108.624 529.132,79.7911 487.5,55C 470.452,45.1488 452.119,38.8155 432.5,36C 409.788,34.5533 393.621,44.0533 384,64.5C 378.062,81.3169 374.395,98.6502 373,116.5C 370.579,152.829 372.913,188.829 380,224.5C 391.846,277.7 407.513,329.7 427,380.5C 436.236,404.634 445.736,428.634 455.5,452.5C 536.318,445.167 617.318,441.334 698.5,441C 727.176,406.843 756.676,373.343 787,340.5C 787.667,339.833 787.667,339.167 787,338.5C 750.154,291.155 710.654,246.155 668.5,203.5C 676.71,201.603 684.71,198.77 692.5,195C 698.962,190.372 704.962,185.205 710.5,179.5C 749.949,218.78 787.449,259.78 823,302.5C 890.801,233.666 963.634,171.166 1041.5,115C 1078.04,88.7299 1116.7,66.0633 1157.5,47C 1175.85,38.9947 1194.85,32.9947 1214.5,29C 1278.01,19.2032 1317.51,45.3699 1333,107.5C 1337.45,143.601 1335.11,179.268 1326,214.5C 1299.04,309.245 1262.54,400.078 1216.5,487C 1299.3,504.491 1379.3,530.157 1456.5,564C 1488.22,578.324 1517.55,596.324 1544.5,618C 1573.82,643.48 1592.16,675.314 1599.5,713.5C 1599.5,725.5 1599.5,737.5 1599.5,749.5C 1592.73,776.823 1578.4,799.656 1556.5,818C 1525.88,841.6 1492.21,859.6 1455.5,872C 1402.07,889.584 1347.74,903.917 1292.5,915C 1263.74,919.915 1235.07,925.081 1206.5,930.5C 1245.1,1019.96 1271.94,1112.96 1287,1209.5C 1289.96,1233.03 1291.46,1256.53 1291.5,1280C 1290.5,1302.5 1285.33,1324 1276,1344.5C 1266.61,1361.89 1252.77,1374.39 1234.5,1382C 1224.52,1385.04 1214.52,1387.54 1204.5,1389.5C 1190.17,1389.5 1175.83,1389.5 1161.5,1389.5C 1118.84,1381.5 1079.5,1365.33 1043.5,1341C 1003.11,1313.28 965.112,1282.61 929.5,1249C 874.63,1197.81 823.797,1143.31 777,1085.5C 736.331,1127.02 693.831,1166.02 649.5,1202.5C 642.714,1196.04 635.38,1190.37 627.5,1185.5C 671.988,1146.18 714.488,1104.52 755,1060.5C 754.956,1058.72 754.289,1057.05 753,1055.5C 722.819,1017.82 693.985,979.155 666.5,939.5C 594.851,934.053 523.518,925.886 452.5,915C 443.303,913.107 434.137,911.274 425,909.5C 405.085,948.671 386.751,988.671 370,1029.5C 350.157,1074.03 334.49,1120.03 323,1167.5C 318.07,1191.98 316.737,1216.64 319,1241.5C 322.056,1267.05 332.889,1288.55 351.5,1306C 364.819,1315.84 379.819,1321.01 396.5,1321.5C 420.306,1319.51 442.973,1313.34 464.5,1303C 493.492,1289.14 520.492,1272.3 545.5,1252.5C 548.52,1260.22 551.853,1267.88 555.5,1275.5C 538.528,1286.66 521.528,1297.82 504.5,1309C 475.416,1326.87 444.749,1341.54 412.5,1353C 387.369,1361.48 361.703,1363.81 335.5,1360C 305.951,1351.78 285.118,1333.61 273,1305.5C 263.722,1277.51 261.056,1248.84 265,1219.5C 269.506,1187.48 276.84,1156.14 287,1125.5C 313.332,1048.27 345.499,973.769 383.5,902C 298.101,884.409 215.768,857.742 136.5,822C 108.624,809.061 82.624,793.061 58.5,774C 27.1707,748.178 7.50407,715.345 -0.5,675.5C -0.5,663.833 -0.5,652.167 -0.5,640.5C 5.98745,612.733 20.3208,589.566 42.5,571C 73.0721,547.479 106.739,529.479 143.5,517C 225.048,490.377 308.382,471.377 393.5,460C 351.303,364.377 323.469,264.544 310,160.5C 306.132,130.99 307.132,101.656 313,72.5C 323.04,28.956 350.207,4.62269 394.5,-0.5 Z M 603.5,141.5 C 604.409,174.822 621.076,195.322 653.5,203C 658.489,203.499 663.489,203.666 668.5,203.5C 710.654,246.155 750.154,291.155 787,338.5C 787.667,339.167 787.667,339.833 787,340.5C 756.676,373.343 727.176,406.843 698.5,441C 617.318,441.334 536.318,445.167 455.5,452.5C 445.736,428.634 436.236,404.634 427,380.5C 407.513,329.7 391.846,277.7 380,224.5C 372.913,188.829 370.579,152.829 373,116.5C 374.395,98.6502 378.062,81.3169 384,64.5C 393.621,44.0533 409.788,34.5533 432.5,36C 452.119,38.8155 470.452,45.1488 487.5,55C 529.132,79.7911 567.799,108.624 603.5,141.5 Z M 1195.5,67.5 C 1229.07,66.6143 1253.57,80.9477 1269,110.5C 1280.59,138.077 1284.26,166.744 1280,196.5C 1275.4,227.955 1267.74,258.621 1257,288.5C 1232.43,352.977 1205.1,416.311 1175,478.5C 1095.52,465.39 1015.36,455.89 934.5,450C 906.206,409.036 876.373,369.202 845,330.5C 844.333,329.5 844.333,328.5 845,327.5C 900.829,267.343 960.329,210.843 1023.5,158C 1046.13,140.352 1069.46,123.685 1093.5,108C 1117.96,92.7714 1143.96,80.7714 1171.5,72C 1179.65,70.535 1187.65,69.035 1195.5,67.5 Z M 866.5,445.5 C 825.511,443.778 784.511,442.278 743.5,441C 765.304,416.192 787.138,391.359 809,366.5C 828.74,392.408 847.906,418.741 866.5,445.5 Z M 691.5,503.5 C 736.174,503.928 780.841,504.762 825.5,506C 854.243,507.005 882.909,508.838 911.5,511.5C 956.043,576.948 997.209,644.281 1035,713.5C 995.297,771.708 953.464,828.375 909.5,883.5C 835.585,885.316 761.918,883.816 688.5,879C 644.028,813.25 602.695,745.417 564.5,675.5C 604.543,616.46 646.876,559.126 691.5,503.5 Z M 631.5,504.5 C 636.511,504.334 641.511,504.501 646.5,505C 611.087,548.668 577.254,593.502 545,639.5C 523.038,598.314 502.205,556.481 482.5,514C 532.23,509.384 581.896,506.218 631.5,504.5 Z M 979.5,516.5 C 1032.08,521.053 1084.42,527.553 1136.5,536C 1139.01,536.376 1141.34,537.21 1143.5,538.5C 1120.27,580.27 1095.43,621.27 1069,661.5C 1039.62,612.71 1009.79,564.377 979.5,516.5 Z M 416.5,520.5 C 417.978,520.238 419.311,520.571 420.5,521.5C 447.613,579.583 477.279,636.25 509.5,691.5C 476.114,741.097 444.448,791.931 414.5,844C 351.671,833.127 289.671,818.46 228.5,800C 190.231,787.856 152.897,773.522 116.5,757C 95.5558,747.048 75.8891,735.048 57.5,721C 45.9404,711.694 37.4404,700.194 32,686.5C 29.9673,676.434 31.3007,666.767 36,657.5C 48.4454,639.055 63.9454,623.555 82.5,611C 106.489,596.341 131.822,584.341 158.5,575C 179.295,568.403 200.295,562.403 221.5,557C 286.327,543.2 351.327,531.033 416.5,520.5 Z M 1392.5,827.5 C 1381.54,794.421 1358.54,779.588 1323.5,783C 1299.05,789.119 1283.55,804.286 1277,828.5C 1276.63,832.85 1276.13,837.183 1275.5,841.5C 1276.25,845.132 1276.58,848.798 1276.5,852.5C 1243.96,859.111 1211.29,864.111 1178.5,867.5C 1151.67,810.432 1122.5,754.766 1091,700.5C 1090.33,699.167 1090.33,697.833 1091,696.5C 1124.72,647.047 1156.39,596.381 1186,544.5C 1266.88,558.875 1346.05,579.709 1423.5,607C 1455.73,618.954 1486.73,633.287 1516.5,650C 1532.51,660.009 1546.68,672.176 1559,686.5C 1567.83,698.321 1570.17,711.321 1566,725.5C 1558.63,739.259 1549.13,751.259 1537.5,761.5C 1513.9,780.554 1487.9,795.72 1459.5,807C 1437.64,815.404 1415.31,822.238 1392.5,827.5 Z M 529.5,727.5 C 547.121,755.153 564.287,783.153 581,811.5C 594.127,832.257 607.627,852.757 621.5,873C 565.891,868.543 510.558,861.71 455.5,852.5C 457.709,847.079 460.209,841.745 463,836.5C 484.472,799.835 506.639,763.502 529.5,727.5 Z M 1054.5,749.5 C 1076.67,790.306 1097.34,831.973 1116.5,874.5C 1061.98,880.324 1007.32,883.491 952.5,884C 987.844,840.124 1021.84,795.291 1054.5,749.5 Z M 627.5,1185.5 C 591.915,1174.84 565.749,1185.84 549,1218.5C 544.748,1229.52 543.582,1240.86 545.5,1252.5C 520.492,1272.3 493.492,1289.14 464.5,1303C 442.973,1313.34 420.306,1319.51 396.5,1321.5C 379.819,1321.01 364.819,1315.84 351.5,1306C 332.889,1288.55 322.056,1267.05 319,1241.5C 316.737,1216.64 318.07,1191.98 323,1167.5C 334.49,1120.03 350.157,1074.03 370,1029.5C 386.751,988.671 405.085,948.671 425,909.5C 434.137,911.274 443.303,913.107 452.5,915C 523.518,925.886 594.851,934.053 666.5,939.5C 693.985,979.155 722.819,1017.82 753,1055.5C 754.289,1057.05 754.956,1058.72 755,1060.5C 714.488,1104.52 671.988,1146.18 627.5,1185.5 Z M 1133.5,937.5 C 1136.85,937.335 1140.18,937.502 1143.5,938C 1172.61,1005.26 1196.45,1074.43 1215,1145.5C 1220.21,1168.23 1223.88,1191.23 1226,1214.5C 1228.82,1248.99 1226.16,1282.99 1218,1316.5C 1210.44,1342.41 1193.28,1354.58 1166.5,1353C 1146.88,1350.18 1128.55,1343.85 1111.5,1334C 1081.2,1316.37 1052.53,1296.37 1025.5,1274C 946.454,1206.46 875.121,1131.62 811.5,1049.5C 841.785,1016.88 871.118,983.543 899.5,949.5C 954.526,948.433 1009.53,946.6 1064.5,944C 1087.68,942.122 1110.68,939.955 1133.5,937.5 Z M 731.5,943.5 C 731.735,942.903 732.235,942.57 733,942.5C 773.782,945.032 814.615,946.866 855.5,948C 834.01,973.155 812.177,997.989 790,1022.5C 770.291,996.295 750.791,969.962 731.5,943.5 Z"/></g>
<g><path style="opacity:1" fill="#ec5635" d="M 710.5,179.5 C 704.962,185.205 698.962,190.372 692.5,195C 684.71,198.77 676.71,201.603 668.5,203.5C 663.489,203.666 658.489,203.499 653.5,203C 621.076,195.322 604.409,174.822 603.5,141.5C 605.347,125.141 612.014,111.141 623.5,99.5C 642.554,84.5281 663.554,81.3614 686.5,90C 714.653,104.811 725.82,127.977 720,159.5C 718.157,166.851 714.99,173.518 710.5,179.5 Z"/></g>
<g><path style="opacity:1" fill="#ed5635" d="M 785.5,592.5 C 827.756,590.538 859.589,607.538 881,643.5C 901.91,692.648 891.744,733.815 850.5,767C 815.048,788.611 779.381,788.944 743.5,768C 702.074,736.033 690.908,695.533 710,646.5C 726.411,616.062 751.577,598.062 785.5,592.5 Z"/></g>
<g><path style="opacity:1" fill="#ec5636" d="M 1392.5,827.5 C 1397.1,857.796 1386.1,880.296 1359.5,895C 1318.07,907.284 1290.4,893.118 1276.5,852.5C 1276.58,848.798 1276.25,845.132 1275.5,841.5C 1276.13,837.183 1276.63,832.85 1277,828.5C 1283.55,804.286 1299.05,789.119 1323.5,783C 1358.54,779.588 1381.54,794.421 1392.5,827.5 Z"/></g>
<g><path style="opacity:1" fill="#ed5635" d="M 627.5,1185.5 C 635.38,1190.37 642.714,1196.04 649.5,1202.5C 668.561,1228.87 668.061,1254.87 648,1280.5C 626.208,1301.41 601.708,1305.25 574.5,1292C 571.167,1289.67 567.833,1287.33 564.5,1285C 561.377,1281.9 558.377,1278.73 555.5,1275.5C 551.853,1267.88 548.52,1260.22 545.5,1252.5C 543.582,1240.86 544.748,1229.52 549,1218.5C 565.749,1185.84 591.915,1174.84 627.5,1185.5 Z"/></g>
</svg>
